/* XPM */
static char * coin_xpm[] = {
"100 100 41 1",
" 	c None",
".	c #E4E85D",
"+	c #D48BC3",
"@	c #E3E467",
"#	c #E2E26A",
"$	c #CD1FDF",
"%	c #CF55D7",
"&	c #DFCF8A",
"*	c #E4E85E",
"=	c #D9ABAE",
"-	c #E2E16C",
";	c #E3E369",
">	c #D58EC1",
",	c #E3E368",
"'	c #E0D87D",
")	c #E1DC76",
"!	c #DECC8D",
"~	c #DAB3A8",
"{	c #E3E760",
"]	c #D79CB9",
"^	c #DFD286",
"/	c #D165D2",
"(	c #D272CE",
"_	c #E3E465",
":	c #E3E466",
"<	c #D594BE",
"[	c #D37FC9",
"}	c #DCC29A",
"|	c #E2E070",
"1	c #E2E06E",
"2	c #E1DA7A",
"3	c #DFCE8B",
"4	c #D9B0AA",
"5	c #E3E75F",
"6	c #E2E06F",
"7	c #D7A2B5",
"8	c #DAB1A9",
"9	c #E0D87E",
"0	c #E3E661",
"a	c #E1DB79",
"b	c #DAB6A5",
"                                                                                                    ",
"                                                                                                    ",
"                                                                                                    ",
"                                                                                                    ",
"                                                                                                    ",
"                                                                                                    ",
"                                                                                                    ",
"                                                                                                    ",
"                                                                                                    ",
"                                                                                                    ",
"                                                                                                    ",
"                                                                                                    ",
"                                                                                                    ",
"                                                                                                    ",
"                                                                                                    ",
"                                                                                                    ",
"                                                                                                    ",
"                                                                                                    ",
"                                                                                                    ",
"                                                                                                    ",
"                                                                                                    ",
"                                                                                                    ",
"                                                                                                    ",
"                                              .....                    .....                        ",
"                                            ........                  .......                       ",
"                                           ..........                 ..........                    ",
"                                          ............               ............                   ",
"                    .....                 ............               ............                   ",
"                 ..........               ............               .............                  ",
"                ............             .............               ..............                 ",
"                .............            .............               ..............                 ",
"               ..............            .............               ..............                 ",
"               ..............            .............               ..............                 ",
"               ..............             ............              +@.............                 ",
"               ..............             #...........             $%&............*                 ",
"              ...............             $=-.......;            $$$$>,...........'                 ",
"               ..............            $$$$=)...;!>$$         $$$$$$~{.........{]                 ",
"               .............^           $$$$$$$%/(/%$$$$       $$$$$$$$~_......*:~$$                ",
"               <'..........@[$         $$$$$$$$$$$$$$$$$     $$$$$$$$$$$[}|;1234[$$$                ",
"             $$$%~25*....*67$$$        $$$$$$$$$$$$$$$$$$   $$$$$$$$$$$$$$$$$$$$$$$$                ",
"             $$$$$$%890;ab[$$$$       $$$$$$$$$$$$$$$$$$$  $$$$$$$$$$$$$ $$$$$$$$$$$$               ",
"            $$$$$$$$$$$$$$$$$$$$     $$$$$$$$$$$$$$$$$$$$$$$$$$$$$$$$$$$$$$$$$$$$$$$$               ",
"           $$$$$$$$$$$$$$$$$$$$$$    $$$$$$$$$$$ $$$$$$$$$$$$$$$$$$$$ $$$$$$$$$$$$$$$               ",
"           $$$$$$$$$$$$$$$$$$$$$$$  $$$$$$$$$$$$$$$$$$$$$$$$$$$$$$$$$$$$$$$$$$$$$$$$$               ",
"           $$$$$$$$$$ $$ $$$$$$$$$$ $$$$$$$$$ $$$$$$$$$$$$$$$$$$$$$$$$$$$$$$$$$$$$$$$               ",
"           $$$$$$$$ $$$$$$$$$$$$$$$$$$$$$$$$ $$$$$$$$$$$$$$$$$$$$ $$$$$$$$$$$ $$$$$$$$              ",
"           $$$$$$$ $$$$$$$$$$$$$$$$$$$$$$$$$$$$$$$$ $$$$$$$$$$$$ $$$$$$$$$$$$ $$$$$$$$              ",
"           $$$$$$$$$$$$$$$ $$$$$$$$$$$$$$$$ $$$$$$$$$$$$$$$$$$$ $$$$$$$$$$$$$$$$$$$$$$              ",
"           $$$$$$$$$$$$$$$$ $$$$$$$$$$$$$$$ $$$$$$$$$$$$$$$$$$$$$$$$$$$$$$$$$$$$$$$$$$              ",
"          $$$$$$$$$$$$$$$$$$$$$$$$$$$$$$$$$$$$$$$$$$$$$$$$$$$$$$$$$$$$$$$$$$$$$$$$$$$$              ",
"          $$$$$$$$$$$$$$$$$$$$$$$$$$$$$$$$ $$$$$$$$$$$ $$$$$$$ $$$$$$$$$$$$$$$$$$$$$$$              ",
"          $$$$$$$$$$$$$$$$$$$$$$$$$$$$$$$$$$$$$$$$$$$$$$$$$$$$$$$$$$$$$$$$$$$$$$$$$$$$              ",
"          $$$$$$$$$$$$$$$$$$$$$$$$$$$$$$$$$$$$$$$$$$$$$$$$$$$$$$$$$$$$$$$$$$$$$$$$$$$$              ",
"          $$$$$$$$$$$$$$$$$$$$$$$$$$$$$$ $$$$$$$$$$$$$$$$$$$$$$$$$$$$$$$$$$$$$$$$$$$$$              ",
"          $$$$$$$$$$$$$$$$$$$$$$$$$$$$$$ $$$$$$$$$$$$$$$$$$$$$$$$$$$$$$$$$$$$$$$$$$$$$              ",
"          $$$$$$$$$$$$$$$$$$$$$$$$$$$$$$ $$$$$$$$$$$$$$$$$$$$$$$$$$$$$$$$$$$$$$$$$$$$$              ",
"          $$$$$$$$$$$$$$$$$$$$$$$$$$$$$$ $$$$$$$$$$$$$$$$$$$$$$$$$$$$$$$$$$$$$$$$$$$$$              ",
"          $$$$$$$$$$$$$$$$$$$$$$ $$$$$$ $$$$$$$$$$$$$$$$$$$$$$$$$$$$$$$$$$$$$$$$$$$$$$              ",
"          $$$$$$$$$$$$$$$$$$$$$$$ $$$$ $$$$$$$$$$$$$$$$$$$$$$$$$$$$$$$$$$$$$$$$$$$$$$$              ",
"          $$$$$$$$ $$$$$$$$$$$$$$$$$$$$$$$$$$$$$$$$$$$$$$$$$$$$$$$$$$$$$$$$$$$$$$$$$$$              ",
"          $$$$$$$$ $$$$$$$$$$$$$$$$$$$$$$$$$$$$$$$$$$$$$$$$$$$$$$$$$$$$$$$$$$$$$$$$$$$              ",
"          $$$$$$$$ $$$$$$$$$$$$$$$$$$$$$$$$$$$$$$$$$$$$$$$$$$$$$$$$$$$$$$$$$$$$$$$$$$$              ",
"           $$$$$$$$$$$$$$$$$$$$$$$$$$$$$$$$$$$$$$$$$$$$$$$$$$$$$$$$$$$$$$$$$$$$$$$$$$$              ",
"           $$$$$$$$ $$$$$$$$$$$$$$$$$$$$$$$$$$$$$$$$$$$$$$$$$$$$$$$$$$$$$$$$$$$$$$$$$$              ",
"           $$$$$$$$$ $$$$$$$$$$$$$$$$$$$$$$$$$$$$$$$$$$$$$$$$$$$$$$$$$$$$$$$$$$$$$$$$$              ",
"           $$$$$$$$$$$$$$$$$$$$$$$$$$$$$$$$$$$$$$$$$$$$$$$$$$$$$$$$$$$$$$$$$$$$$$$$$$$              ",
"           $$$$$$$$$$$  $$$$$$$$$$$$$$$$$$$$$$$$$$$$$$$$$    $$$$$$$$$$$$$$  $$$$$$$$$              ",
"            $$$$$$$$$$$$$$$$$$$$$$$$$$$$$$$$$$$$$$$$$$$$$$$$$$$$$$$$$$$$$$$$$$$$$$$$$$              ",
"            $$$$$$$$$$$$$$$$$$$$$$$$$$$$$$$$$$$$$$$$$$$$$$$$$$$$$$$$$$$$$$$$$$$$$$$$$$              ",
"             $$$$$$$$$$$$$$$$$$$$$$$$$$$$$$$$$$$$$$$$$$$$$$$$$$$$$$$$$$$$$$$$$$$$$$$$$              ",
"               $$$$$$$$$$$$$$$$$$$$$$$$$$$$$$$$$$$$$$$$$$$$$$$$$$$$$$$$$$$$$$$$$$$$$$$              ",
"               $$$$$$$$$$$$$$$$$$$$$$$$$$$$$$$$$$$$$$$$$$$$$$$$$$$$$$$$$$$$$$$$$$$$$$               ",
"                $$$$$$$$$$$$$$$$$$$$$$$$$$$$$$$$$$$$$$$$$$$$$$$$$$$$$$$$$$$$$$$$$$$$                ",
"                 $$$$$$$$$$$$$$$$$$$$$$$$$$$$$$$$$$$$$$$$$$$$$$$$$$$$$$$$$$$$$$$$$                  ",
"                                                            $$$$$$$$$$$$$$$$$$                      ",
"                                                                                                    ",
"                                                                                                    ",
"                                                                                                    ",
"                                                                                                    ",
"                                                                                                    ",
"                                                                                                    ",
"                                                                                                    ",
"                                                                                                    ",
"                                                                                                    ",
"                                                                                                    ",
"                                                                                                    ",
"                                                                                                    ",
"                                                                                                    ",
"                                                                                                    ",
"                                                                                                    ",
"                                                                                                    ",
"                                                                                                    ",
"                                                                                                    ",
"                                                                                                    ",
"                                                                                                    ",
"                                                                                                    ",
"                                                                                                    ",
"                                                                                                    ",
"                                                                                                    ",
"                                                                                                    "};
