/* XPM */
static char * exit_xpm[] = {
"100 100 3 1",
" 	c None",
".	c #E4E85D",
"+	c #56360A",
"                                                                                                    ",
"                                                                                                    ",
"                                                                                                    ",
"                                                                                                    ",
"                                                                                                    ",
"                                                                                                    ",
"                  ...................................................................               ",
"                  ...................................................................               ",
"                  ...................................................................               ",
"                  ...................................................................               ",
"                  ....++++++++++++++++++++++++++++++++++++++++++++++++++++++++++++...               ",
"                  ....++++++++++++++++++++++++++++++++++++++++++++++++++++++++++++...               ",
"                  ....++++++++++++++++++++++++++++++++++++++++++++++++++++++++++++...               ",
"                  ....++++++++++++++++++++++++++++++++++++++++++++++++++++++++++++...               ",
"                  ....++++++++++++++++++++++++++++++++++++++++++++++++++++++++++++...               ",
"                  ....++++++++++++++++++++++++++++++++++++++++++++++++++++++++++++...               ",
"                  ....++++++++++++++++++++++++++++++++++++++++++++++++++++++++++++...               ",
"                  ....++++++++++++++++++++++++++++++++++++++++++++++++++++++++++++...               ",
"                  ....++++++++++++++++++++++++++++++++++++++++++++++++++++++++++++...               ",
"                  ....++++++++++++++++++++++++++++++++++++++++++++++++++++++++++++...               ",
"                  ....++++++++++++++++++++++++++++++++++++++++++++++++++++++++++++...               ",
"                  ....++++++++++++++++++++++++++++++++++++++++++++++++++++++++++++...               ",
"                  ....++++++++++++++++++++++++++++++++++++++++++++++++++++++++++++...               ",
"                  ....++++++++++++++++++++++++++++++++++++++++++++++++++++++++++++...               ",
"                  ....++++++++++++++++++++++++++++++++++++++++++++++++++++++++++++...               ",
"                  ....++++++++++++++++++++++++++++++++++++++++++++++++++++++++++++...               ",
"                  ....++++++++++++++++++++++++++++++++++++++++++++++++++++++++++++...               ",
"                  ....++++++++++++++++++++++++++++++++++++++++++++++++++++++++++++...               ",
"                  ....++++++++++++++++++++++++++++++++++++++++++++++++++++++++++++...               ",
"                  ....++++++++++++++++++++++++++++++++++++++++++++++++++++++++++++...               ",
"                  ....++++++++++++++++++++++++++++++++++++++++++++++++++++++++++++...               ",
"                  ....++++++++++++++++++++++++++++++++++++++++++++++++++++++++++++...               ",
"                  ....++++++++++++++++++++++++++++++++++++++++++++++++++++++++++++...               ",
"                  ....++++++++++++++++++++++++++++++++++++++++++++++++++++++++++++...               ",
"                  ....++++++++++++++++++++++++++++++++++++++++++++++++++++++++++++...               ",
"                  ....++++++++++++++++++++++++++++++++++++++++++++++++++++++++++++...               ",
"                  ....++++++++++++++++++++++++++++++++++++++++++++++++++++++++++++...               ",
"                  ....++++++++++++++++++++++++++++++++++++++++++++++++++++++++++++...               ",
"                  ....++++++++++++++++++++++++++++++++++++++++++++++++++++++++++++...               ",
"                  ....++++++++++++++++++++++++++++++++++++++++++++++++++++++++++++...               ",
"                  ....++++++++++++++++++++++++++++++++++++++++++++++++++++++++++++...               ",
"                  ....++++++++++++++++++++++++++++++++++++++++++++++++++++++++++++...               ",
"                  ....++++++++++++++++++++++++++++++++++++++++++++++++++++++++++++...               ",
"                  ....++++++++++++++++++++++++++++++++++++++++++++++++++++++++++++...               ",
"                  ....++++++++++++++++++++++++++++++++++++++++++++++++++++++++++++...               ",
"                  ....++++++++++++++++++++++++++++++++++++++++++++++++++++++++++++...               ",
"                  ....++++++++++++++++++++++++++++++++++++++++++++++++++++++++++++...               ",
"                  ....++++++++++++++++++++++++++++++++++++++++++++++++++++++++++++...               ",
"                  ....++++++++++++++++++++++++++++++++++++++++++++++++++++++++++++...               ",
"                  ....++++++++++++++++++++++++++++++++++++++++++++++++++++++++++++...               ",
"                  ....++++++++++++++++++++++++++++++++++++++++++.....................               ",
"                  ....++++++++++++++++++++++++++++++++++++++++++.....................               ",
"                  ....++++++++++++++++++++++++++++++++++++++++++.....................               ",
"                  ....++++++++++++++++++++++++++++++++++++++++++.....................               ",
"                  ....++++++++++++++++++++++++++++++++++++++++++.....................               ",
"                  ....++++++++++++++++++++++++++++++++++++++++++....++++++++++++++...               ",
"                  ....++++++++++++++++++++++++++++++++++++++++++....++++++++++++++...               ",
"                  ....++++++++++++++++++++++++++++++++++++++++++....++++++++++++++...               ",
"                  ....++++++++++++++++++++++++++++++++++++++++++....++++++++++++++...               ",
"                  ....++++++++++++++++++++++++++++++++++++++++++....++++++++++++++...               ",
"                  ....++++++++++++++++++++++++++++++++++++++++++....++++++++++++++...               ",
"                  ....++++++++++++++++++++++++++++++++++++++++++....++++++++++++++...               ",
"                  ....++++++++++++++++++++++++++++++++++++++++++....++++++++++++++...               ",
"                  ....++++++++++++++++++++++++++++++++++++++++++++++++++++++++++++...               ",
"                  ....++++++++++++++++++++++++++++++++++++++++++++++++++++++++++++...               ",
"                  ....++++++++++++++++++++++++++++++++++++++++++++++++++++++++++++...               ",
"                  ....++++++++++++++++++++++++++++++++++++++++++++++++++++++++++++...               ",
"                  ....++++++++++++++++++++++++++++++++++++++++++++++++++++++++++++...               ",
"                  ....++++++++++++++++++++++++++++++++++++++++++++++++++++++++++++...               ",
"                  ....++++++++++++++++++++++++++++++++++++++++++++++++++++++++++++...               ",
"                  ....++++++++++++++++++++++++++++++++++++++++++++++++++++++++++++...               ",
"                  ....++++++++++++++++++++++++++++++++++++++++++++++++++++++++++++...               ",
"                  ....++++++++++++++++++++++++++++++++++++++++++++++++++++++++++++...               ",
"                  ....++++++++++++++++++++++++++++++++++++++++++++++++++++++++++++...               ",
"                  ....++++++++++++++++++++++++++++++++++++++++++++++++++++++++++++...               ",
"                  ....++++++++++++++++++++++++++++++++++++++++++++++++++++++++++++...               ",
"                  ....++++++++++++++++++++++++++++++++++++++++++++++++++++++++++++...               ",
"                  ....++++++++++++++++++++++++++++++++++++++++++++++++++++++++++++...               ",
"                  ....++++++++++++++++++++++++++++++++++++++++++++++++++++++++++++...               ",
"                  ....++++++++++++++++++++++++++++++++++++++++++++++++++++++++++++...               ",
"                  ....++++++++++++++++++++++++++++++++++++++++++++++++++++++++++++...               ",
"                  ....++++++++++++++++++++++++++++++++++++++++++++++++++++++++++++...               ",
"                  ....++++++++++++++++++++++++++++++++++++++++++++++++++++++++++++...               ",
"                  ....++++++++++++++++++++++++++++++++++++++++++++++++++++++++++++...               ",
"                  ....++++++++++++++++++++++++++++++++++++++++++++++++++++++++++++...               ",
"                  ....++++++++++++++++++++++++++++++++++++++++++++++++++++++++++++...               ",
"                  ....++++++++++++++++++++++++++++++++++++++++++++++++++++++++++++...               ",
"                  ....++++++++++++++++++++++++++++++++++++++++++++++++++++++++++++...               ",
"                  ....++++++++++++++++++++++++++++++++++++++++++++++++++++++++++++...               ",
"                  ....++++++++++++++++++++++++++++++++++++++++++++++++++++++++++++...               ",
"                  ....++++++++++++++++++++++++++++++++++++++++++++++++++++++++++++...               ",
"                  ....++++++++++++++++++++++++++++++++++++++++++++++++++++++++++++...               ",
"                  ....++++++++++++++++++++++++++++++++++++++++++++++++++++++++++++...               ",
"                  ....++++++++++++++++++++++++++++++++++++++++++++++++++++++++++++...               ",
"                  ....++++++++++++++++++++++++++++++++++++++++++++++++++++++++++++...               ",
"                  ....++++++++++++++++++++++++++++++++++++++++++++++++++++++++++++...               ",
"                  ....++++++++++++++++++++++++++++++++++++++++++++++++++++++++++++...               ",
"                  ....++++++++++++++++++++++++++++++++++++++++++++++++++++++++++++...               ",
"                  ....++++++++++++++++++++++++++++++++++++++++++++++++++++++++++++...               ",
"                                                                                                    "};
