/* XPM */
static char * player_xpm[] = {
"100 100 5 1",
" 	c None",
".	c #1C60BD",
"+	c #E4E85D",
"@	c #34BD1C",
"#	c #BD1C39",
"                                                                                                    ",
"                                                                                                    ",
"                                                                                                    ",
"                                                                                                    ",
"                                                                                                    ",
"                                                                                                    ",
"                                                                                                    ",
"                                                                                                    ",
"                                                                                                    ",
"                                                         .......                                    ",
"                                                  ................                                  ",
"                                               .....................                                ",
"                                           ...........................                              ",
"          +                            .................................                            ",
"          +++ ++                    .....................................                           ",
"           +++++                 ..........................................                         ",
"           +++++                ............................................          +     +       ",
"          +++++++              ...............................................        +++ +++       ",
"         +++++++++           .........................        .................       ++++++        ",
"          ++++++            .....................               ...............        +++++        ",
"            +++            ...................                     .............      +++++++       ",
"             +           ..................                         .............    +++++++++      ",
"             +          ................                              ...........    +++++++++      ",
"                       ..............                                  ..........     ++++++        ",
"                      ..............                                    ..........      +++         ",
"                     .............                                       ..........      +          ",
"                    ............                                         ...........     +          ",
"                   ............                                           ..........                ",
"                   ...........         @@                                 ..........                ",
"                   ..........         @@@@@                  @             ..........               ",
"                   .........         @@@@@@@                @@@             ..........              ",
"                   ........          @@@@@@@@              @@@@@@           ..........              ",
"                   ........          @@@@@@@@@            @@@@@@@@           .........              ",
"                  .........          @@@@@@@@@            @@@@@@@@@          ..........             ",
"                  .........          @@@@@@@@@            @@@@@@@@@          ..........             ",
"                  .........          @@@@@@@@@            @@@@@@@@@          ..........             ",
"                  .........          @@@@@@@@             @@@@@@@@@           ..........            ",
"                  .........           @@@@@@@             @@@@@@@@@           ..........            ",
"                 .........               @@                @@@@@@@@           ..........            ",
"                 .........                                  @@@@@@            ..........            ",
"                 .........                                   @@@              ..........            ",
"                 .........                                                    ..........            ",
"                 ........                                                     ..........            ",
"                 ........                                                     ..........            ",
"                 ........            #                                        .........             ",
"                 ........         #######                                     .........             ",
"                 ........        #########                                    .........             ",
"                 ........        #########                   #               .........              ",
"                 ........        ##########                ######            .........              ",
"                 ........        ##########               ########           .........              ",
"                 .........       ###########             #########          ..........              ",
"                 ..........       ##########            ##########         ..........               ",
"                 ..........        ##########           ##########         ..........               ",
"                 ..........        ###########         ###########        ...........               ",
"                  .........        #############       ###########        ..........                ",
"                  ..........        #############     ###########         .........                 ",
"                  ..........         #############   ###########         ..........                 ",
"                   .........         ##########################          .........                  ",
"                   ..........         ########################          ..........                  ",
"                    .........         ########################          .........                   ",
"                    ..........         ######################          ..........                   ",
"                    ...........          ###################           ..........                   ",
"                     ..........            ################           ..........                    ",
"                     ...........             #############           ..........                     ",
"         ++    ++    ............             ###########          ............                     ",
"         ++++++++    ..............             #######           ............                      ",
"         +++++++      ...............                            ............                       ",
"          ++++++       ..................                      ..............                       ",
"         ++++++++      ....................                 ................                        ",
"        ++++++++++      ..................................................                          ",
"        ++++++++++       .................................................                          ",
"         +++++++           ..............................................                           ",
"           ++++              ..........................................                             ",
"            ++                 .......................................                              ",
"            ++                   ....................................                               ",
"                                     ..............................                                 ",
"                                        ........................                                    ",
"                                          .....                                                     ",
"                                                                                                    ",
"                                                                                                    ",
"                                                                                                    ",
"                                                                                                    ",
"                                                                                                    ",
"                                                                                                    ",
"                                                           ++    ++                                 ",
"                                                           ++++++++                                 ",
"                                                           +++++++                                  ",
"                                                            ++++++                                  ",
"                                                           ++++++++                                 ",
"                                                          ++++++++++                                ",
"                                                          ++++++++++                                ",
"                                                           +++++++                                  ",
"                                                             ++++                                   ",
"                                                              ++                                    ",
"                                                              ++                                    ",
"                                                                                                    ",
"                                                                                                    ",
"                                                                                                    ",
"                                                                                                    ",
"                                                                                                    "};
